<svg xmlns="http://www.w3.org/2000/svg" xmlns:xlink="http://www.w3.org/1999/xlink" viewBox="0,0,256,256" width="48px" height="48px" fill-rule="nonzero"><g fill="#fffdfd" fill-rule="nonzero" stroke="none" stroke-width="1" stroke-linecap="butt" stroke-linejoin="miter" stroke-miterlimit="10" stroke-dasharray="" stroke-dashoffset="0" font-family="none" font-weight="none" font-size="none" text-anchor="none" style="mix-blend-mode: normal"><g transform="scale(4,4)"><path d="M32,10c12.131,0 22,9.869 22,22c0,12.131 -9.869,22 -22,22c-12.131,0 -22,-9.869 -22,-22c0,-12.131 9.869,-22 22,-22zM25,40.66c0,-2.847 0,-9.474 0,-12.321c0,-0.739 -0.6,-1.339 -1.339,-1.339c-0.425,0 -0.896,0 -1.321,0c-0.74,0 -1.34,0.6 -1.34,1.339c0,2.847 0,9.474 0,12.321c0,0.74 0.6,1.34 1.339,1.34c0.425,0 0.896,0 1.321,0c0.74,0 1.34,-0.6 1.34,-1.34zM23,24c1.104,0 2,-0.896 2,-2c0,-1.104 -0.896,-2 -2,-2c-1.104,0 -2,0.896 -2,2c0,1.104 0.896,2 2,2zM44,40.679c0,-2.388 0,-7.179 0,-7.179c0,-3.59 -2.91,-6.5 -6.5,-6.5c-1.748,0 -3.332,0.694 -4.5,1.816v-0.495c0,-0.729 -0.592,-1.321 -1.321,-1.321c-0.436,0 -0.921,0 -1.357,0c-0.73,0 -1.322,0.592 -1.322,1.321c0,2.843 0,9.514 0,12.357c0,0.73 0.592,1.322 1.321,1.322c0.436,0 0.921,0 1.357,0c0.73,0 1.322,-0.592 1.322,-1.321c0,-2.153 0,-6.179 0,-6.179c0,-1.925 1.575,-3.5 3.5,-3.5c1.925,0 3.5,1.575 3.5,3.5v6.179c0,0.729 0.592,1.321 1.321,1.321c0.436,0 0.921,0 1.357,0c0.73,0 1.322,-0.592 1.322,-1.321z"></path></g></g></svg>